<svg version="1.2" xmlns="http://www.w3.org/2000/svg" viewBox="0 0 233 236" width="233" height="236">
	<title>bridge-image-2</title>
	<defs>
		<clipPath clipPathUnits="userSpaceOnUse" id="cp1">
			<path d="m96.5 39h40v40h-40z"/>
		</clipPath>
	</defs>
	<style>
		.s0 { fill: #043a53 } 
		.s1 { fill: none;stroke: #ffffff;stroke-width: 4 } 
		.s2 { opacity: .16;fill: #f2f5f6 } 
		.s3 { fill: #ffffff } 
	</style>
	<g>
		<path fill-rule="evenodd" class="s0" d="m116.5 5c63.2 0 114.5 51.3 114.5 114.5 0 63.2-51.3 114.5-114.5 114.5-63.2 0-114.5-51.3-114.5-114.5 0-63.2 51.3-114.5 114.5-114.5z"/>
		<path fill-rule="evenodd" class="s1" d="m116.5 3c64.3 0 116.5 52.2 116.5 116.5 0 64.3-52.2 116.5-116.5 116.5-64.3 0-116.5-52.2-116.5-116.5 0-64.3 52.2-116.5 116.5-116.5z"/>
		<path fill-rule="evenodd" class="s2" d="m116.5 31c15.5 0 28 12.5 28 28 0 15.5-12.5 28-28 28-15.5 0-28-12.5-28-28 0-15.5 12.5-28 28-28z"/>
		<g id="Clip-Path" clip-path="url(#cp1)">
			<g>
				<path class="s3" d="m104.6 44h23.8q0.4 0 0.7 0.2 0.4 0.2 0.6 0.5l6.4 8.7q0.2 0.3 0.2 0.6-0.1 0.3-0.3 0.5l-18.9 20.5q-0.2 0.3-0.6 0.3-0.3 0-0.6-0.3 0 0-18.9-20.5-0.2-0.2-0.3-0.5 0-0.3 0.2-0.6l6.4-8.7q0.2-0.3 0.6-0.5 0.3-0.2 0.7-0.2zm0.9 3.3l-4.7 6.5 15.7 16.9 15.7-16.9-4.7-6.5z"/>
			</g>
		</g>
		<path class="s3" d="m116.3 125l-0.5 2.5q-0.1 0.9-0.7 1.4-0.6 0.4-1.9 0.4h-2.4l-1.2 6.6h3.4q0.9 0 1.3 0.6 0.4 0.5 0.2 1.8l-0.3 1.9h-5.2l-1.8 9.8h-2.8q-0.4 0-0.7-0.2-0.4-0.2-0.6-0.5-0.3-0.4-0.4-0.8-0.1-0.4 0-0.9l1.4-7.4h-4.9l-1.4 7.6q-0.2 1.2-1 1.7-0.7 0.5-1.7 0.5h-2.6l1.8-9.8h-2.7q-1 0-1.3-0.5-0.4-0.6-0.2-1.9l0.3-1.9h4.5l1.3-6.6h-5.2l0.5-2.5q0.2-0.9 0.8-1.3 0.5-0.5 1.8-0.5h2.7l1.5-7.7q0.1-0.9 0.8-1.5 0.7-0.5 1.7-0.5h2.7l-1.9 9.7h5l1.8-9.7h2.6q1 0 1.5 0.6 0.6 0.6 0.4 1.5l-1.4 7.6zm-10.4 4.3h-4.9l-1.2 6.6h4.9zm34.9 16.3v4.4h-19.2v-4.4h7v-20.2q0-1.2 0.1-2.5l-5 4.2q-0.4 0.3-0.8 0.4-0.4 0.1-0.8 0-0.4-0.1-0.7-0.3-0.3-0.1-0.4-0.4l-1.9-2.5 10.6-9h4.9v30.3z"/>
		<path class="s3" d="m81 166.4q1.1 0 1.9 0.2 0.8 0.3 1.3 0.7 0.5 0.4 0.8 0.9 0.2 0.6 0.2 1.3 0 0.4-0.1 0.8-0.1 0.4-0.4 0.7-0.2 0.3-0.6 0.6-0.4 0.2-0.9 0.4 2.4 0.6 2.4 2.6 0 0.7-0.3 1.4-0.3 0.6-0.8 1-0.6 0.5-1.4 0.7-0.7 0.3-1.8 0.3h-4.3v-11.6zm-1.9 1.7v3.3h1.8q1.1 0 1.6-0.4 0.6-0.4 0.6-1.2 0-0.9-0.5-1.3-0.5-0.4-1.6-0.4zm2.2 8.2q0.6 0 1-0.1 0.4-0.2 0.6-0.4 0.3-0.2 0.4-0.6 0.1-0.3 0.1-0.6 0-0.4-0.1-0.7-0.2-0.3-0.4-0.5-0.3-0.2-0.7-0.4-0.4-0.1-1-0.1h-2.1v3.4zm7.3-2.2q0 0.7 0.2 1.1 0.2 0.5 0.5 0.8 0.3 0.3 0.6 0.4 0.4 0.2 0.9 0.2 0.5 0 0.8-0.1 0.4-0.1 0.7-0.3 0.2-0.1 0.4-0.2 0.2-0.1 0.4-0.1 0.2 0 0.4 0.2l0.5 0.7q-0.3 0.4-0.7 0.6-0.4 0.3-0.9 0.4-0.4 0.2-0.9 0.3-0.4 0-0.9 0-0.8 0-1.5-0.3-0.8-0.2-1.3-0.8-0.6-0.6-0.9-1.4-0.3-0.8-0.3-1.9 0-0.8 0.3-1.6 0.3-0.7 0.8-1.2 0.5-0.6 1.2-0.9 0.7-0.3 1.7-0.3 0.7 0 1.4 0.2 0.6 0.3 1.1 0.7 0.5 0.5 0.7 1.2 0.3 0.7 0.3 1.6 0 0.4-0.1 0.6-0.1 0.1-0.3 0.1zm3.7-1.1q0-0.4-0.1-0.8-0.1-0.3-0.3-0.6-0.2-0.2-0.6-0.4-0.3-0.1-0.7-0.1-0.9 0-1.4 0.5-0.5 0.5-0.6 1.4zm8.3-1.6q-0.1 0.1-0.2 0.2-0.1 0-0.2 0-0.2 0-0.3-0.1-0.2 0-0.4-0.1-0.2-0.1-0.5-0.2-0.3-0.1-0.7-0.1-0.5 0-0.9 0.3-0.3 0.2-0.3 0.6 0 0.3 0.2 0.4 0.1 0.2 0.4 0.4 0.3 0.1 0.7 0.2 0.3 0.1 0.7 0.2 0.4 0.2 0.7 0.3 0.4 0.2 0.7 0.5 0.3 0.2 0.4 0.6 0.2 0.3 0.2 0.8 0 0.6-0.2 1.1-0.2 0.5-0.6 0.9-0.5 0.3-1.1 0.5-0.6 0.2-1.4 0.2-0.4 0-0.8-0.1-0.4 0-0.8-0.2-0.4-0.1-0.7-0.3-0.3-0.2-0.5-0.4l0.4-0.7q0.1-0.2 0.2-0.2 0.2-0.1 0.3-0.1 0.2 0 0.4 0.1 0.2 0.1 0.4 0.2 0.2 0.1 0.5 0.2 0.3 0.1 0.7 0.1 0.4 0 0.6 0 0.3-0.1 0.4-0.3 0.2-0.1 0.3-0.3 0.1-0.2 0.1-0.3 0-0.3-0.2-0.5-0.2-0.2-0.5-0.3-0.3-0.2-0.6-0.3-0.4-0.1-0.8-0.2-0.3-0.1-0.7-0.3-0.4-0.2-0.7-0.5-0.2-0.2-0.4-0.6-0.2-0.4-0.2-0.9 0-0.5 0.2-1 0.2-0.4 0.6-0.8 0.4-0.3 1-0.5 0.5-0.2 1.3-0.2 0.9 0 1.6 0.2 0.6 0.3 1.1 0.8zm4.8 6.7q-1.1 0-1.7-0.6-0.5-0.6-0.5-1.7v-4.5h-0.9q-0.1 0-0.3-0.1-0.1-0.1-0.1-0.4v-0.7l1.4-0.3 0.4-2.2q0-0.2 0.1-0.2 0.1-0.1 0.3-0.1h1v2.6h2.2v1.4h-2.2v4.4q0 0.4 0.2 0.6 0.2 0.2 0.5 0.2 0.2 0 0.3 0 0.2-0.1 0.3-0.1 0.1-0.1 0.1-0.1 0.1 0 0.2 0 0.1 0 0.1 0 0.1 0 0.1 0.1l0.6 1q-0.4 0.3-1 0.5-0.5 0.2-1.1 0.2zm16.8-0.1h-1.7q-0.3 0-0.4-0.1-0.2-0.2-0.3-0.4l-0.9-2.4h-4.8l-0.8 2.4q-0.1 0.2-0.3 0.3-0.2 0.2-0.4 0.2h-1.7l4.5-11.6h2.2zm-3.8-4.3l-1.4-3.9q-0.1-0.3-0.2-0.6-0.1-0.4-0.2-0.8-0.1 0.4-0.2 0.8-0.1 0.4-0.3 0.6l-1.4 3.9zm16-3.9l-2.6 8.2h-1.6q-0.3 0-0.4-0.3l-1.5-4.8q0-0.2-0.1-0.4-0.1-0.3-0.1-0.5-0.1 0.2-0.1 0.5-0.1 0.2-0.1 0.4l-1.5 4.8q-0.1 0.3-0.5 0.3h-1.5l-2.6-8.2h1.6q0.2 0 0.4 0.1 0.1 0.1 0.2 0.3l1.1 4.4q0.1 0.3 0.2 0.7 0.1 0.3 0.1 0.7 0.1-0.4 0.2-0.7 0.1-0.4 0.2-0.7l1.4-4.4q0-0.2 0.2-0.3 0.1-0.1 0.3-0.1h0.9q0.2 0 0.3 0.1 0.2 0.1 0.2 0.3l1.3 4.4q0.1 0.3 0.2 0.7 0.1 0.3 0.2 0.7 0.1-0.7 0.3-1.4l1.2-4.4q0.1-0.2 0.2-0.3 0.2-0.1 0.4-0.1zm0.8 1.2q1.4-1.3 3.4-1.3 0.7 0 1.3 0.2 0.6 0.2 0.9 0.7 0.4 0.4 0.6 1 0.2 0.5 0.2 1.2v5.2h-0.9q-0.2 0-0.4-0.1-0.1 0-0.2-0.3l-0.2-0.6q-0.3 0.3-0.6 0.5-0.3 0.2-0.6 0.4-0.3 0.1-0.7 0.2-0.4 0-0.8 0-0.5 0-1-0.1-0.4-0.1-0.7-0.4-0.4-0.3-0.5-0.7-0.2-0.4-0.2-1 0-0.3 0.1-0.6 0.1-0.3 0.3-0.6 0.3-0.3 0.7-0.5 0.3-0.3 0.9-0.4 0.5-0.2 1.3-0.3 0.7-0.2 1.6-0.2v-0.5q0-0.8-0.3-1.2-0.4-0.4-1.1-0.4-0.4 0-0.8 0.1-0.3 0.1-0.5 0.3-0.2 0.1-0.4 0.2-0.2 0.1-0.5 0.1-0.2 0-0.3-0.1-0.2-0.1-0.3-0.2zm4.6 3.5q-0.9 0.1-1.5 0.2-0.6 0.1-0.9 0.3-0.4 0.1-0.5 0.4-0.2 0.2-0.2 0.5 0 0.5 0.3 0.7 0.4 0.2 0.8 0.2 0.7 0 1.1-0.2 0.4-0.2 0.9-0.7zm5.6-3.2q0.4-0.8 0.9-1.2 0.6-0.4 1.3-0.4 0.5 0 0.9 0.2l-0.1 1.5q-0.1 0.1-0.2 0.2 0 0.1-0.2 0.1-0.1 0-0.3-0.1-0.2 0-0.5 0-0.3 0-0.6 0.1-0.2 0.1-0.4 0.3-0.2 0.1-0.4 0.4-0.1 0.3-0.3 0.6v5h-1.9v-8.2h1.1q0.3 0 0.4 0.1 0.2 0.1 0.2 0.4zm11-5.1v11.9h-1.2q-0.4 0-0.5-0.4l-0.2-0.7q-0.5 0.5-1.1 0.9-0.6 0.3-1.5 0.3-0.7 0-1.2-0.3-0.6-0.2-1-0.8-0.4-0.5-0.6-1.3-0.2-0.8-0.2-1.8 0-0.9 0.2-1.7 0.3-0.8 0.7-1.3 0.5-0.6 1.1-0.9 0.7-0.4 1.5-0.4 0.7 0 1.2 0.3 0.5 0.2 0.8 0.5v-4.3zm-1.9 5.8q-0.4-0.4-0.8-0.6-0.4-0.1-0.8-0.1-0.5 0-0.8 0.1-0.4 0.2-0.6 0.5-0.3 0.4-0.4 0.9-0.2 0.5-0.2 1.2 0 0.7 0.1 1.3 0.2 0.4 0.4 0.8 0.2 0.3 0.5 0.4 0.3 0.2 0.7 0.2 0.6 0 1-0.3 0.5-0.3 0.9-0.7zm-48.6 28.2q0.3 0 0.5 0.2 0.2 0.2 0.2 0.5v1.2h-8v-0.7q0-0.2 0.1-0.4 0.1-0.2 0.3-0.4l3.5-3.5q0.4-0.5 0.8-0.9 0.3-0.4 0.6-0.8 0.2-0.4 0.3-0.8 0.2-0.4 0.2-0.8 0-0.5-0.2-0.8-0.1-0.3-0.3-0.5-0.2-0.2-0.5-0.3-0.3-0.1-0.7-0.1-0.4 0-0.7 0.1-0.3 0.1-0.5 0.2-0.2 0.2-0.4 0.5-0.2 0.2-0.2 0.5-0.2 0.4-0.4 0.5-0.2 0.1-0.6 0l-1.1-0.2q0.2-0.8 0.5-1.4 0.4-0.6 0.9-1.1 0.5-0.4 1.1-0.6 0.7-0.2 1.5-0.2 0.8 0 1.5 0.2 0.6 0.3 1.1 0.7 0.5 0.4 0.7 1 0.3 0.6 0.3 1.4 0 0.6-0.2 1.2-0.2 0.5-0.5 1-0.3 0.5-0.7 1-0.5 0.4-0.9 0.9l-2.6 2.7q0.3-0.1 0.7-0.2 0.4-0.1 0.7-0.1zm10.3-3.9q0 1.5-0.3 2.6-0.3 1.1-0.9 1.9-0.6 0.7-1.3 1.1-0.8 0.3-1.7 0.3-0.9 0-1.7-0.3-0.8-0.4-1.3-1.1-0.6-0.8-0.9-1.9-0.4-1.1-0.3-2.6-0.1-1.5 0.3-2.6 0.3-1.1 0.9-1.9 0.5-0.7 1.3-1 0.8-0.4 1.7-0.4 0.9 0 1.7 0.4 0.7 0.3 1.3 1 0.6 0.8 0.9 1.9 0.3 1.1 0.3 2.6zm-2 0q0-1.3-0.2-2.1-0.2-0.8-0.5-1.3-0.3-0.5-0.7-0.7-0.4-0.2-0.8-0.2-0.5 0-0.8 0.2-0.4 0.2-0.7 0.7-0.4 0.5-0.5 1.3-0.2 0.8-0.2 2.1 0 1.3 0.2 2.1 0.1 0.8 0.5 1.3 0.3 0.5 0.7 0.7 0.3 0.2 0.8 0.2 0.4 0 0.8-0.2 0.4-0.2 0.7-0.7 0.3-0.5 0.5-1.3 0.2-0.8 0.2-2.1zm10.3 3.9q0.3 0 0.5 0.2 0.2 0.2 0.2 0.5v1.2h-8v-0.7q0-0.2 0.1-0.4 0.1-0.2 0.3-0.4l3.5-3.5q0.4-0.5 0.8-0.9 0.3-0.4 0.6-0.8 0.2-0.4 0.3-0.8 0.2-0.4 0.2-0.8 0-0.5-0.2-0.8-0.1-0.3-0.3-0.5-0.2-0.2-0.5-0.3-0.3-0.1-0.7-0.1-0.4 0-0.7 0.1-0.3 0.1-0.5 0.2-0.2 0.2-0.4 0.5-0.2 0.2-0.2 0.5-0.2 0.4-0.4 0.5-0.2 0.1-0.6 0l-1.1-0.2q0.2-0.8 0.5-1.4 0.3-0.6 0.9-1.1 0.5-0.4 1.1-0.6 0.7-0.2 1.5-0.2 0.8 0 1.4 0.2 0.7 0.3 1.2 0.7 0.5 0.4 0.7 1 0.3 0.6 0.3 1.4 0 0.6-0.2 1.2-0.2 0.5-0.5 1-0.3 0.5-0.7 1-0.5 0.4-0.9 0.9l-2.6 2.7q0.3-0.1 0.7-0.2 0.4-0.1 0.7-0.1zm2.3-6.5q0.1-0.8 0.5-1.4 0.3-0.6 0.8-1.1 0.5-0.4 1.2-0.6 0.7-0.2 1.5-0.2 0.8 0 1.4 0.2 0.6 0.2 1.1 0.7 0.5 0.4 0.7 0.9 0.2 0.5 0.2 1.2 0 0.5-0.1 1-0.1 0.4-0.3 0.7-0.3 0.3-0.6 0.5-0.4 0.2-0.8 0.4 1 0.3 1.6 1 0.5 0.6 0.5 1.7 0 0.8-0.3 1.5-0.4 0.6-0.9 1.1-0.6 0.5-1.3 0.7-0.7 0.2-1.5 0.2-0.9 0-1.5-0.2-0.7-0.2-1.1-0.6-0.5-0.4-0.9-0.9-0.3-0.6-0.5-1.3l0.8-0.4q0.4-0.2 0.7-0.1 0.3 0.1 0.4 0.3 0.2 0.3 0.3 0.6 0.2 0.3 0.5 0.5 0.2 0.2 0.5 0.3 0.3 0.2 0.8 0.2 0.5 0 0.9-0.2 0.3-0.2 0.6-0.4 0.2-0.3 0.4-0.6 0.1-0.4 0.1-0.7 0-0.4-0.1-0.7-0.1-0.4-0.4-0.6-0.2-0.3-0.8-0.4-0.5-0.1-1.4-0.1v-1.4q0.8 0 1.2-0.2 0.5-0.1 0.8-0.3 0.3-0.3 0.4-0.6 0.1-0.3 0.1-0.7 0-0.8-0.4-1.2-0.5-0.4-1.3-0.4-0.3 0-0.6 0.1-0.3 0.1-0.5 0.2-0.3 0.2-0.4 0.5-0.2 0.2-0.3 0.5-0.1 0.4-0.3 0.5-0.3 0.1-0.7 0z"/>
	</g>
</svg>