<svg version="1.2" xmlns="http://www.w3.org/2000/svg" viewBox="0 0 104 281" width="104" height="281">
	<title>Decoration</title>
	<defs>
		<clipPath clipPathUnits="userSpaceOnUse" id="cp1">
			<path d="m32 32h40v40h-40z"/>
		</clipPath>
	</defs>
	<style>
		.s0 { fill: #043a53 } 
		.s1 { opacity: .16;fill: #f2f5f6 } 
		.s2 { fill: #ffffff } 
	</style>
	<g>
		<path fill-rule="evenodd" class="s0" d="m52 0c28.7 0 52 23.3 52 52v177c0 28.7-23.3 52-52 52-28.7 0-52-23.3-52-52v-177c0-28.7 23.3-52 52-52z"/>
		<path fill-rule="evenodd" class="s1" d="m52 16c19.9 0 36 16.1 36 36 0 19.9-16.1 36-36 36-19.9 0-36-16.1-36-36 0-19.9 16.1-36 36-36z"/>
		<g id="Clip-Path" clip-path="url(#cp1)">
			<g>
				<path class="s2" d="m36.7 40.7l7 4.6 6.9-9.7q0.3-0.4 0.6-0.5 0.4-0.2 0.8-0.2 0.4 0 0.8 0.2 0.3 0.1 0.6 0.5l6.9 9.7 7-4.6q0.4-0.3 0.9-0.3 0.5 0 0.9 0.2 0.4 0.3 0.7 0.7 0.2 0.5 0.1 1l-2.7 23.2c-0.1 0.4-0.3 0.8-0.6 1.1-0.3 0.3-0.7 0.4-1.1 0.4h-27c-0.4 0-0.8-0.1-1.1-0.4-0.3-0.3-0.5-0.7-0.6-1.1l-2.7-23.3q-0.1-0.4 0.1-0.9 0.3-0.4 0.7-0.7 0.4-0.2 0.9-0.2 0.5 0 0.9 0.3zm1.1 4.7l2.2 18.3h24l2.2-18.3-6.7 4.5-7.5-10.5-7.5 10.5zm14.2 11.6c-0.9 0-1.8-0.4-2.4-1-0.6-0.6-1-1.5-1-2.4 0-0.9 0.4-1.7 1-2.3 0.6-0.7 1.5-1 2.4-1 0.9 0 1.7 0.3 2.3 1 0.7 0.6 1 1.4 1 2.3 0 0.9-0.3 1.8-1 2.4-0.6 0.6-1.4 1-2.3 1z"/>
			</g>
		</g>
	</g>
</svg>